<svg width="456" height="319" viewBox="0 0 456 319" fill="none" xmlns="http://www.w3.org/2000/svg">
<path d="M6.63 151.355C6.63 117.715 6.1 81.6648 5.04 58.4348C3.72 33.8748 0.28 28.5348 0.28 28.5348L1.07 27.4648C18.77 27.7348 35.15 30.6648 35.15 47.2248C35.15 74.1948 34.09 102.225 34.09 130.535V152.435H35.41L38.84 148.965C73.72 113.715 81.38 107.575 82.96 97.1648C82.96 97.1648 90.62 95.0248 97.23 95.0248C106.21 95.0248 109.91 96.8948 109.91 100.365C109.91 110.245 82.17 127.065 57.86 148.965V150.035C70.28 166.855 104.1 212.785 125.76 228.535V229.865C125.76 229.865 119.42 232.535 104.89 232.535C67.9 232.535 44.39 165.515 36.2 163.115L34.35 162.585C34.61 182.875 35.41 197.565 35.41 215.185C35.41 229.605 28.01 233.345 18.76 233.345C13.21 233.345 6.34 231.745 0 230.675C4.49 227.205 6.61 177.275 6.61 151.375L6.63 151.355Z" fill="white"/>
<path d="M171.52 233.345H165.95C151.99 233.345 140.75 221.875 141.04 207.915C141.04 192.695 142.1 177.205 142.1 162.255C142.1 101.375 136.02 93.0953 135.76 93.0953C140.25 91.7653 144.48 90.6953 148.71 90.6953C160.6 90.6953 171.17 97.1053 171.17 107.785C171.17 136.085 169.85 168.125 169.85 187.885L171.53 233.345H171.52Z" fill="white"/>
<path d="M144.08 69.4853C143.99 70.3253 144.84 70.9553 145.62 70.6153C148.6 69.3153 152.44 67.5053 156.75 65.0853C164.28 60.8753 170.56 57.3653 174.5 52.7153C182.45 43.3153 180.82 29.2253 179.35 22.0053C179.07 20.6453 177.74 19.7653 176.38 20.0553C173.23 20.7153 169.62 21.8653 165.91 23.8953C159.05 27.6353 154.52 32.8753 151.52 37.8253C148.19 43.3253 146.24 49.5453 145.56 55.9353L144.1 69.4953L144.08 69.4853Z" fill="white" stroke="white" stroke-miterlimit="10"/>
<path d="M201.138 113.176C198.498 107.566 195.588 101.426 190.568 97.1555V95.8255C195.848 94.7555 201.138 93.6855 210.388 93.6855C219.638 93.6855 229.148 97.9556 231.258 106.236C236.808 129.196 253.978 178.066 265.608 207.706H266.928C283.308 170.856 288.068 154.836 288.068 140.416C288.068 124.396 274.328 96.0956 274.328 96.0956C274.328 96.0956 279.088 93.6955 289.648 93.6955C298.628 93.6955 308.668 97.9655 310.518 106.246C315.798 129.206 330.338 178.076 342.218 207.716H343.538V207.446C379.208 104.116 365.468 93.6955 388.458 93.6955C396.648 93.6955 400.608 95.8355 400.608 95.8355V97.1656C400.608 97.1656 394.008 101.176 386.868 121.196L346.968 233.346C346.968 233.346 318.168 232.546 311.298 210.116C307.868 198.636 303.898 184.486 298.348 166.856H297.028C294.118 178.606 284.608 198.626 278.008 213.046L268.758 233.336C268.758 233.336 241.548 232.536 234.678 210.106C227.278 185.806 210.898 134.536 201.128 113.176H201.138Z" fill="white"/>
<path d="M446.368 233.345H440.798C426.838 233.345 415.598 221.875 415.888 207.915C415.888 192.695 416.948 177.205 416.948 162.255C416.948 101.375 410.868 93.0953 410.608 93.0953C415.098 91.7653 419.328 90.6953 423.558 90.6953C435.448 90.6953 446.018 97.1053 446.018 107.785C446.018 136.085 444.698 168.125 444.698 187.885L446.378 233.345H446.368Z" fill="white"/>
<path d="M418.928 69.4853C418.838 70.3253 419.688 70.9553 420.468 70.6153C423.448 69.3153 427.288 67.5053 431.598 65.0853C439.128 60.8753 445.408 57.3653 449.348 52.7153C457.298 43.3153 455.668 29.2253 454.198 22.0053C453.918 20.6453 452.588 19.7653 451.228 20.0553C448.078 20.7153 444.468 21.8653 440.758 23.8953C433.898 27.6353 429.368 32.8753 426.368 37.8253C423.038 43.3253 421.088 49.5453 420.408 55.9353L418.948 69.4953L418.928 69.4853Z" fill="white" stroke="white" stroke-miterlimit="10"/>
<path d="M254.02 66.2951C252.733 69.6672 253.404 73.2774 251.461 73.2774C251.461 73.2774 243.395 80.1199 241.433 76.0852C240.542 74.2538 241.276 72.901 241.433 70.8706C241.735 66.9448 243.05 62.4539 243.693 61.0448C244.336 59.6357 246.305 56.0004 246.305 56.0004C246.305 56.0004 260.943 31.8142 286.197 27.6899C305.603 24.5242 320.505 33.1525 324.159 35.4109C345.321 48.4852 349.78 70.8827 350.507 75.1036C350.527 75.2387 350.54 75.3738 350.54 75.5089V76.191C350.54 76.7379 350.051 77.1561 349.51 77.0724L343.751 76.1845C342.806 76.043 342.034 75.3674 341.776 74.4473C340.998 71.687 339.743 68.1611 337.665 64.3649C327.801 46.3684 309.547 40.9701 308.067 40.5583C303.512 39.2907 288.765 35.9128 273.966 43.7754C271.109 45.2939 259.284 52.5016 254.02 66.2951Z" fill="white" stroke="white" stroke-width="5" stroke-miterlimit="10"/>
<path d="M328.573 68.9714C328.921 69.6728 328.239 71.1462 326.598 72.2593C325.24 73.1794 323.754 74.1703 321.341 74.8909C320.537 75.129 314.669 76.8791 313.453 74.8909C313.047 74.2282 313.157 73.3145 313.453 72.9156C315.428 70.284 320.028 68.3151 323.973 67.6588C326.032 67.3178 327.917 67.6588 328.573 68.9714Z" fill="#97C249"/>
<path d="M316.959 55.7744C317.622 56.1862 317.809 57.8077 316.998 59.6092C316.322 61.102 315.57 62.7234 313.884 64.6022C313.324 65.2263 309.232 69.7817 307.154 68.7265C306.459 68.3726 306.079 67.5362 306.124 67.0472C306.433 63.7722 309.328 59.6864 312.346 57.0677C313.922 55.6972 315.711 55.0088 316.959 55.7873V55.7744Z" fill="#97C249"/>
<path d="M278.483 53.175C279.107 52.6989 280.684 53.1043 282.08 54.5069C283.238 55.6715 284.486 56.9519 285.638 59.191C286.024 59.9374 288.823 65.3807 287.092 66.9443C286.513 67.4654 285.593 67.5233 285.155 67.311C282.208 65.8569 279.416 61.7004 278.046 57.9428C277.325 55.9804 277.318 54.063 278.49 53.175H278.483Z" fill="#97C249"/>
<path d="M266.148 67.7615C266.329 67.0022 267.796 66.3009 269.764 66.4875C271.399 66.6483 273.175 66.8349 275.491 67.8194C276.263 68.1475 281.893 70.5475 281.565 72.8573C281.455 73.6295 280.786 74.26 280.304 74.3758C277.106 75.1415 272.306 73.7195 268.851 71.7056C267.043 70.6569 265.814 69.1899 266.148 67.755V67.7615Z" fill="#97C249"/>
<path d="M298.795 50.3058C299.632 50.5052 300.198 51.5025 300.533 52.0945C300.79 52.5449 301.504 53.9347 301.562 56.6113C301.588 57.8402 301.723 62.3828 299.362 64.1458C298.39 64.8664 297.026 64.416 296.215 63.5795C294.041 61.3533 294.311 56.1352 295.565 53.3299C295.733 52.9631 297.135 49.9197 298.795 50.3122V50.3058Z" fill="#97C249"/>
<path d="M9.072 277.401V287.193H20.592V291.657H9.072V301.881H22.032V306.345H3.6V272.937H22.032V277.401H9.072ZM44.5639 306.681C42.3239 306.681 40.3079 306.297 38.5159 305.529C36.7239 304.729 35.3159 303.609 34.2919 302.169C33.2679 300.729 32.7559 299.049 32.7559 297.129H38.6119C38.7399 298.569 39.2999 299.753 40.2919 300.681C41.3159 301.609 42.7399 302.073 44.5639 302.073C46.4519 302.073 47.9239 301.625 48.9799 300.729C50.0359 299.801 50.5639 298.617 50.5639 297.177C50.5639 296.057 50.2279 295.145 49.5559 294.441C48.9159 293.737 48.0999 293.193 47.1079 292.809C46.1479 292.425 44.8039 292.009 43.0759 291.561C40.8999 290.985 39.1239 290.409 37.7479 289.833C36.4039 289.225 35.2519 288.297 34.2919 287.049C33.3319 285.801 32.8519 284.137 32.8519 282.057C32.8519 280.137 33.3319 278.457 34.2919 277.017C35.2519 275.577 36.5959 274.473 38.3239 273.705C40.0519 272.937 42.0519 272.553 44.3239 272.553C47.5559 272.553 50.1959 273.369 52.2439 275.001C54.3239 276.601 55.4759 278.809 55.6999 281.625H49.6519C49.5559 280.409 48.9799 279.369 47.9239 278.505C46.8679 277.641 45.4759 277.209 43.7479 277.209C42.1799 277.209 40.8999 277.609 39.9079 278.409C38.9159 279.209 38.4199 280.361 38.4199 281.865C38.4199 282.889 38.7239 283.737 39.3319 284.409C39.9719 285.049 40.7719 285.561 41.7319 285.945C42.6919 286.329 44.0039 286.745 45.6679 287.193C47.8759 287.801 49.6679 288.409 51.0439 289.017C52.4519 289.625 53.6359 290.569 54.5959 291.849C55.5879 293.097 56.0839 294.777 56.0839 296.889C56.0839 298.585 55.6199 300.185 54.6919 301.689C53.7959 303.193 52.4679 304.409 50.7079 305.337C48.9799 306.233 46.9319 306.681 44.5639 306.681ZM88.8926 272.985V277.449H80.0126V306.345H74.5406V277.449H65.6126V272.985H88.8926ZM104.706 277.401V287.193H116.226V291.657H104.706V301.881H117.666V306.345H99.2344V272.937H117.666V277.401H104.706ZM113.154 265.833L102.546 271.065V267.033L113.154 261.177V265.833ZM150.758 272.985V277.449H141.878V306.345H136.406V277.449H127.478V272.985H150.758ZM166.572 272.985V306.345H161.1V272.985H166.572ZM176.732 289.593C176.732 286.329 177.484 283.401 178.988 280.809C180.524 278.217 182.588 276.201 185.18 274.761C187.804 273.289 190.668 272.553 193.772 272.553C197.324 272.553 200.476 273.433 203.228 275.193C206.012 276.921 208.028 279.385 209.276 282.585H202.7C201.836 280.825 200.636 279.513 199.1 278.649C197.564 277.785 195.788 277.353 193.772 277.353C191.564 277.353 189.596 277.849 187.868 278.841C186.14 279.833 184.78 281.257 183.788 283.113C182.828 284.969 182.348 287.129 182.348 289.593C182.348 292.057 182.828 294.217 183.788 296.073C184.78 297.929 186.14 299.369 187.868 300.393C189.596 301.385 191.564 301.881 193.772 301.881C195.788 301.881 197.564 301.449 199.1 300.585C200.636 299.721 201.836 298.409 202.7 296.649H209.276C208.028 299.849 206.012 302.313 203.228 304.041C200.476 305.769 197.324 306.633 193.772 306.633C190.636 306.633 187.772 305.913 185.18 304.473C182.588 303.001 180.524 300.969 178.988 298.377C177.484 295.785 176.732 292.857 176.732 289.593ZM240.593 299.529H226.625L224.225 306.345H218.513L230.465 272.937H236.801L248.753 306.345H242.993L240.593 299.529ZM239.057 295.065L233.633 279.561L228.161 295.065H239.057Z" fill="white"/>
</svg>
